<?xml version="1.0" encoding="utf-8"?>
<!-- (c) ammap.com | SVG weather icons -->
<svg
    version="1.1"
    xmlns="http://www.w3.org/2000/svg"
    xmlns:xlink="http://www.w3.org/1999/xlink"
    width="64"
    height="44"
    viewBox="10 15 50 40">
    <defs>
        <filter id="blur" width="200%" height="200%">
            <feGaussianBlur in="SourceAlpha" stdDeviation="3"/>
            <feOffset dx="0" dy="4" result="offsetblur"/>
            <feComponentTransfer>
                <feFuncA type="linear" slope="0.05"/>
            </feComponentTransfer>
            <feMerge> 
                <feMergeNode/>
                <feMergeNode in="SourceGraphic"/> 
            </feMerge>
        </filter>
        <style type="text/css"><![CDATA[
/*
** RAIN
*/
@keyframes am-weather-rain {
  0% {
    stroke-dashoffset: 0;
  }

  100% {
    stroke-dashoffset: -100;
  }
}

.am-weather-rain-1 {
  -webkit-animation-name: am-weather-rain;
     -moz-animation-name: am-weather-rain;
      -ms-animation-name: am-weather-rain;
          animation-name: am-weather-rain;
  -webkit-animation-duration: 8s;
     -moz-animation-duration: 8s;
      -ms-animation-duration: 8s;
          animation-duration: 8s;
  -webkit-animation-timing-function: linear;
     -moz-animation-timing-function: linear;
      -ms-animation-timing-function: linear;
          animation-timing-function: linear;
  -webkit-animation-iteration-count: infinite;
     -moz-animation-iteration-count: infinite;
      -ms-animation-iteration-count: infinite;
          animation-iteration-count: infinite;
}

.am-weather-rain-2 {
  -webkit-animation-name: am-weather-rain;
     -moz-animation-name: am-weather-rain;
      -ms-animation-name: am-weather-rain;
          animation-name: am-weather-rain;
  -webkit-animation-delay: 0.25s;
     -moz-animation-delay: 0.25s;
      -ms-animation-delay: 0.25s;
          animation-delay: 0.25s;
  -webkit-animation-duration: 8s;
     -moz-animation-duration: 8s;
      -ms-animation-duration: 8s;
          animation-duration: 8s;
  -webkit-animation-timing-function: linear;
     -moz-animation-timing-function: linear;
      -ms-animation-timing-function: linear;
          animation-timing-function: linear;
  -webkit-animation-iteration-count: infinite;
     -moz-animation-iteration-count: infinite;
      -ms-animation-iteration-count: infinite;
          animation-iteration-count: infinite;
}
        ]]></style>
    </defs>
    <g filter="url(#blur)" id="rainy-7">
    
        <g transform="translate(19,9)">
            <g>
                <path d="M47.7,35.4c0-4.6-3.7-8.2-8.2-8.2c-1,0-1.9,0.2-2.8,0.5c-0.3-3.4-3.1-6.2-6.6-6.2c-3.7,0-6.7,3-6.7,6.7c0,0.8,0.2,1.6,0.4,2.3    c-0.3-0.1-0.7-0.1-1-0.1c-3.7,0-6.7,3-6.7,6.7c0,3.6,2.9,6.6,6.5,6.7l17.2,0C44.2,43.3,47.7,39.8,47.7,35.4z" fill="#57A0EE" stroke="white" stroke-linejoin="round" stroke-width="1" transform="translate(-20,-11)"/>
                <path fill-rule="evenodd"  clip-rule="evenodd" fill="#57A0EE" sttoke-width="1" d="M21.0001,11.9998h-18c-0.552,0-1,1.0001-1,1.0001
	s0.217,0.7189,0.535,0.8859c0.302,0.159,0.465,0.5,0.465,0.842v4.272c0,0.553,1,1,1,1s1-0.447,1-1v-4c0-0.552,1-1,1-1s1,0.448,1,1v2
	c0,0.553,1,1,1,1s1-0.447,1-1v-2c0-0.552,1-1,1-1s1,0.448,1,1v2c0,0.553,1,1,1,1s1-0.447,1-1v-2c0-0.552,1-1,1-1s1,0.448,1,1v2
	c0,0.553,1,1,1,1s1-0.447,1-1v-2c0-0.552,1-1,1-1s1,0.448,1,1v4c0,0.553,1,1,1,1s1-0.447,1-1v-4.272
	c0-0.342,0.162-0.683,0.465-0.842c0.318-0.1669,0.535-0.8859,0.535-0.8859S21.5521,11.9998,21.0001,11.9998" transform="translate(-0,31.5)"  x1="0" x2="0" y1="0" y2="7"/>
            </g>
        </g>
        
        
        <g transform="translate(31,46), rotate(10)">
            <line class="am-weather-rain-1" fill="none" stroke="#91C0F8" stroke-dasharray="0.1,7" stroke-linecap="round" stroke-width="1.5" transform="translate(-5,1)" x1="0" x2="0" y1="0" y2="6" />
            <line class="am-weather-rain-2" fill="none" stroke="#91C0F8" stroke-dasharray="0.1,7" stroke-linecap="round" stroke-width="1.5" transform="translate(0,-1)" x1="0" x2="0" y1="0" y2="6" />
            <line class="am-weather-rain-1" fill="none" stroke="#91C0F8" stroke-dasharray="0.1,7" stroke-linecap="round" stroke-width="1.5" transform="translate(5,0)" x1="0" x2="0" y1="0" y2="6" />



            
        </g>
        
        
    </g>
    
</svg>