<?xml version="1.0" encoding="utf-8"?>
<!-- (c) ammap.com | SVG weather icons -->
<svg
    version="1.1"
    xmlns="http://www.w3.org/2000/svg"
    xmlns:xlink="http://www.w3.org/1999/xlink"
    width="64"
    height="44"
    viewBox="10 15 55 42">
    <defs>
        <filter id="blur" width="200%" height="200%">
            <feGaussianBlur in="SourceAlpha" stdDeviation="3"/>
            <feOffset dx="0" dy="4" result="offsetblur"/>
            <feComponentTransfer>
                <feFuncA type="linear" slope="0.05"/>
            </feComponentTransfer>
            <feMerge> 
                <feMergeNode/>
                <feMergeNode in="SourceGraphic"/> 
            </feMerge>
        </filter>
        <style type="text/css"><![CDATA[
/*
** CLOUDS
*/
@keyframes am-weather-cloud-2 {
  0% {
    -webkit-transform: translate(0px,0px);
       -moz-transform: translate(0px,0px);
        -ms-transform: translate(0px,0px);
            transform: translate(0px,0px);
  }

  50% {
    -webkit-transform: translate(2px,0px);
       -moz-transform: translate(2px,0px);
        -ms-transform: translate(2px,0px);
            transform: translate(2px,0px);
  }

  100% {
    -webkit-transform: translate(0px,0px);
       -moz-transform: translate(0px,0px);
        -ms-transform: translate(0px,0px);
            transform: translate(0px,0px);
  }
}

.am-weather-cloud-2 {
  -webkit-animation-name: am-weather-cloud-2;
     -moz-animation-name: am-weather-cloud-2;
          animation-name: am-weather-cloud-2;
  -webkit-animation-duration: 3s;
     -moz-animation-duration: 3s;
          animation-duration: 3s;
  -webkit-animation-timing-function: linear;
     -moz-animation-timing-function: linear;
          animation-timing-function: linear;
  -webkit-animation-iteration-count: infinite;
     -moz-animation-iteration-count: infinite;
          animation-iteration-count: infinite;
}

/*
** SNOW
*/
@keyframes am-weather-snow {
  0% {
    -webkit-transform: translateX(0) translateY(0);
       -moz-transform: translateX(0) translateY(0);
        -ms-transform: translateX(0) translateY(0);
            transform: translateX(0) translateY(0);
  }

  33.33% {
    -webkit-transform: translateX(-1.2px) translateY(2px);
       -moz-transform: translateX(-1.2px) translateY(2px);
        -ms-transform: translateX(-1.2px) translateY(2px);
            transform: translateX(-1.2px) translateY(2px);
  }

  66.66% {
    -webkit-transform: translateX(1.4px) translateY(4px);
       -moz-transform: translateX(1.4px) translateY(4px);
        -ms-transform: translateX(1.4px) translateY(4px);
            transform: translateX(1.4px) translateY(4px);
    opacity: 1;
  }

  100% {
    -webkit-transform: translateX(-1.6px) translateY(6px);
       -moz-transform: translateX(-1.6px) translateY(6px);
        -ms-transform: translateX(-1.6px) translateY(6px);
            transform: translateX(-1.6px) translateY(6px);
    opacity: 0;
  }
}

.am-weather-snow-1 {
  -webkit-animation-name: am-weather-snow;
     -moz-animation-name: am-weather-snow;
      -ms-animation-name: am-weather-snow;
          animation-name: am-weather-snow;
  -webkit-animation-duration: 2s;
     -moz-animation-duration: 2s;
      -ms-animation-duration: 2s;
          animation-duration: 2s;
  -webkit-animation-timing-function: linear;
     -moz-animation-timing-function: linear;
      -ms-animation-timing-function: linear;
          animation-timing-function: linear;
  -webkit-animation-iteration-count: infinite;
     -moz-animation-iteration-count: infinite;
      -ms-animation-iteration-count: infinite;
          animation-iteration-count: infinite;
}

.am-weather-snow-2 {
  -webkit-animation-name: am-weather-snow;
     -moz-animation-name: am-weather-snow;
      -ms-animation-name: am-weather-snow;
          animation-name: am-weather-snow;
  -webkit-animation-delay: 1.2s;
     -moz-animation-delay: 1.2s;
      -ms-animation-delay: 1.2s;
          animation-delay: 1.2s;
  -webkit-animation-duration: 2s;
     -moz-animation-duration: 2s;
      -ms-animation-duration: 2s;
          animation-duration: 2s;
  -webkit-animation-timing-function: linear;
     -moz-animation-timing-function: linear;
      -ms-animation-timing-function: linear;
          animation-timing-function: linear;
  -webkit-animation-iteration-count: infinite;
     -moz-animation-iteration-count: infinite;
      -ms-animation-iteration-count: infinite;
          animation-iteration-count: infinite;
}

        ]]></style>
    </defs>
    <g filter="url(#blur)" id="snowy-5">
        <g transform="translate(20,10)">
            <g class="am-weather-cloud-2">
                <path d="M47.7,35.4c0-4.6-3.7-8.2-8.2-8.2c-1,0-1.9,0.2-2.8,0.5c-0.3-3.4-3.1-6.2-6.6-6.2c-3.7,0-6.7,3-6.7,6.7c0,0.8,0.2,1.6,0.4,2.3    c-0.3-0.1-0.7-0.1-1-0.1c-3.7,0-6.7,3-6.7,6.7c0,3.6,2.9,6.6,6.5,6.7l17.2,0C44.2,43.3,47.7,39.8,47.7,35.4z" fill="#57A0EE" stroke="white" stroke-linejoin="round" stroke-width="1.2" transform="translate(-20,-11)"/>
            </g>
            <g class="am-weather-snow-1">
                <g transform="translate(9,28)">
                    <line class="am-weather-rain-1" fill="none" stroke="#91C0F8" stroke-dasharray="0.1,7" stroke-linecap="square" stroke-width="3" transform="translate(,0)" x1="0" x2="0" y1="8" y2="8" />
                     <line class="am-weather-rain-2" fill="none" stroke="#91C0F8" stroke-dasharray="4,7" stroke-linecap="round" stroke-width="2" transform="translate(11,7)" x1="0" x2="0" y1="0" y2="5" />
                </g>
            </g>
           
            <g class="am-weather-snow-2">
                <g transform="translate(16,28)">
                   
                    <line class="am-weather-rain-1" fill="none" stroke="#91C0F8" stroke-dasharray="0.1,7" stroke-linecap="square" stroke-width="3" transform="translate(-1,0)" x1="0" x2="0" y1="8" y2="8" />
                   
                    <line class="am-weather-rain-1" fill="none" stroke="#91C0F8" stroke-dasharray="4,7" stroke-linecap="round" stroke-width="2" transform="translate(-12,7)" x1="0" x2="0" y1="0" y2="8" />
           
                </g>
            </g>
             <path fill-rule="evenodd"  clip-rule="evenodd" fill="#0072F5" d="M21.0001,11.9998h-18c-0.552,0-1,1.0001-1,1.0001
	s0.217,0.7189,0.535,0.8859c0.302,0.159,0.465,0.5,0.465,0.842v4.272c0,0.553,1,1,1,1s1-0.447,1-1v-4c0-0.552,1-1,1-1s1,0.448,1,1v2
	c0,0.553,1,1,1,1s1-0.447,1-1v-2c0-0.552,1-1,1-1s1,0.448,1,1v2c0,0.553,1,1,1,1s1-0.447,1-1v-2c0-0.552,1-1,1-1s1,0.448,1,1v2
	c0,0.553,1,1,1,1s1-0.447,1-1v-2c0-0.552,1-1,1-1s1,0.448,1,1v4c0,0.553,1,1,1,1s1-0.447,1-1v-4.272
	c0-0.342,0.162-0.683,0.465-0.842c0.318-0.1669,0.535-0.8859,0.535-0.8859S21.5521,11.9998,21.0001,11.9998" transform="translate(-0,32)" x1="0" x2="0" y1="0" y2="8"/>
        </g>
    </g>
</svg>

 