<?xml version='1.0' encoding='iso-8859-1'?>
<svg version="1.1" xmlns="http://www.w3.org/2000/svg" viewBox="0 0 243.925 243.925" xmlns:xlink="http://www.w3.org/1999/xlink" enable-background="new 0 0 243.925 243.925">
  <g>
    <path fill='white' d="m95.827,30.53c-10.046-6.503-21.716-9.939-33.746-9.939-16.601,0-32.207,6.464-43.945,18.202-20.595,20.595-24.069,53.269-8.262,77.69l1.68,2.596 86.868-86.869-2.595-1.68z"/>
    <path fill='white' d="m181.701,98.648l19.473-19.473-21.213-21.213-40.686,40.686 62.225,62.226-20.035,20.035-6.864-6.864 4.874-4.874-57.227-71.072c4.144-16.368 1.67-34.245-7.933-49.08l-1.68-2.596-86.869,86.868 2.596,1.68c10.045,6.502 21.714,9.939 33.746,9.94 0.002,0 0.003,0 0.005,0 5.275,0 10.448-0.659 15.43-1.927l70.971,57.146 4.874-4.874 28.076,28.077 62.461-62.461-62.224-62.224zm-55.862,62.462l-16.971-16.97 14.614-14.614 16.971,16.97-14.614,14.614z"/>
  </g>
</svg>
