<svg id="Capa_1" enable-background="new 0 0 512 512" height="512" viewBox="0 0 512 512" width="512" xmlns="http://www.w3.org/2000/svg"><g><path fill= 'white' d="m457 9.007c-30.419 0-55 24.829-55 55v288c0 20.869 11.778 39.247 29.178 48.543 36.683 19.605 80.822-7.335 80.822-48.543v-288c0-30.327-24.673-55-55-55z"/><path fill= 'white' d="m159 96.497v175.51c0 8.28-6.72 15-15 15s-15-6.72-15-15v-175h-54c-41.42 0-75 33.58-75 75v72c0 41.42 33.58 75 75 75h56.86l26.51 124.3c7.06 33.86 36.51 58.74 71.44 59.67 27.35.73 46.8-23.25 41.5-48.59l-10.84-52.06c29.48-9.63 52.62-33.32 61.54-63.04 17.03 3.11 33.78 6.92 49.99 11.82v-285.92c-63.58 20.211-146.534 29.576-213 31.31zm95.3 276.2c-3.1-14.85-6.16-29.57-9.2-44.15 15.58 1.81 31.29 3.68 46.9 5.91-6.46 17.51-20.27 31.53-37.7 38.24z"/></g></svg>